<?xml version="1.0" standalone="no"?>
<!DOCTYPE svg PUBLIC "-//W3C//DTD SVG 20010904//EN"
 "http://www.w3.org/TR/2001/REC-SVG-20010904/DTD/svg10.dtd">
<svg version="1.0" xmlns="http://www.w3.org/2000/svg"
 width="260.000000pt" height="260.000000pt" viewBox="0 0 260.000000 260.000000"
 preserveAspectRatio="xMidYMid meet">
<metadata>
Created by potrace 1.11, written by Peter Selinger 2001-2013
</metadata>
<g transform="translate(0.000000,260.000000) scale(0.100000,-0.100000)"
fill="#000000" stroke="none">
<path d="M840 2452 c-51 -25 -69 -70 -70 -172 0 -121 31 -201 107 -271 52 -49
95 -69 150 -69 43 0 55 4 71 25 33 42 46 114 31 182 -25 123 -121 282 -185
309 -44 18 -62 18 -104 -4z m128 -104 c70 -70 129 -238 104 -293 -27 -60 -106
-51 -171 20 -55 60 -81 122 -81 194 0 77 25 111 80 111 29 0 45 -7 68 -32z"/>
<path d="M1536 2227 c-30 -23 -103 -81 -163 -128 -69 -54 -157 -110 -238 -153
-210 -109 -345 -208 -345 -251 0 -28 10 -38 25 -25 22 18 115 -30 115 -59 0
-29 31 -20 187 51 24 11 51 17 60 15 14 -4 13 -5 -4 -6 -13 0 -23 -5 -23 -11
0 -5 -7 -10 -15 -10 -25 0 -95 -49 -95 -66 0 -13 8 -15 43 -9 23 4 46 11 52
16 5 5 16 9 25 9 8 0 -4 -12 -27 -26 -41 -24 -54 -46 -35 -58 5 -3 42 4 81 15
40 11 74 19 76 17 2 -2 -26 -21 -63 -43 -98 -58 -89 -80 23 -60 l40 7 -38 -27
c-21 -14 -36 -32 -34 -38 2 -7 22 -13 45 -15 47 -3 52 -11 21 -30 -12 -8 -19
-21 -17 -34 2 -17 15 -24 66 -36 35 -9 62 -20 62 -28 0 -18 -21 -22 -53 -11
-25 8 -32 6 -53 -17 -14 -14 -29 -26 -33 -26 -5 0 -17 -26 -26 -57 -51 -168
-67 -221 -77 -246 -6 -16 -12 -50 -13 -76 -2 -50 -35 -147 -67 -193 -10 -14
-18 -29 -18 -33 0 -16 -79 -101 -133 -142 -86 -67 -122 -138 -81 -161 14 -8
14 -12 -7 -31 -30 -28 -35 -27 -55 14 -22 46 -71 86 -134 109 -41 15 -53 16
-66 5 -31 -26 12 -123 86 -194 23 -22 46 -50 51 -63 6 -15 17 -22 35 -22 33 0
90 42 100 72 3 12 28 48 54 79 94 113 223 335 283 486 9 23 26 64 38 90 51
114 59 133 59 139 0 3 7 22 16 42 9 21 20 46 24 57 27 68 43 96 50 89 5 -5 20
-38 34 -73 37 -93 90 -183 149 -254 61 -73 78 -89 133 -118 l41 -22 49 29 c80
47 329 312 352 374 3 8 21 39 39 68 23 35 38 50 46 45 35 -22 135 -101 153
-122 12 -13 27 -20 33 -17 27 17 9 65 -64 171 -84 124 -102 145 -124 145 -23
-1 -71 -68 -71 -99 0 -14 -19 -64 -43 -111 -34 -70 -46 -85 -63 -83 -16 2 -40
-22 -99 -99 -43 -56 -92 -114 -108 -129 l-29 -28 -38 19 c-69 35 -202 187
-286 327 -18 31 -45 69 -59 86 -14 17 -25 34 -25 38 0 4 -9 9 -20 12 -29 7
-25 22 15 53 42 32 44 51 8 65 l-26 10 24 16 c54 36 57 57 12 74 l-26 10 22
22 c26 29 28 57 3 57 -30 0 -34 12 -10 37 18 20 20 27 11 43 -10 15 -7 22 19
42 36 28 33 58 -6 58 -13 0 -37 7 -52 15 -25 13 -26 15 -9 16 11 1 34 1 50 0
40 -3 74 31 55 54 -7 8 -19 15 -26 15 -8 0 -14 3 -14 6 0 3 56 60 125 126 69
66 125 126 125 133 0 7 8 23 18 35 17 22 18 22 125 -109 114 -139 141 -162
151 -134 5 11 -7 31 -37 62 -66 69 -121 141 -113 148 7 7 49 -30 141 -126 58
-60 85 -72 85 -37 0 7 -58 69 -128 138 l-129 125 -81 1 c-81 1 -81 1 -136 -41z
m-27 -124 c-68 -69 -149 -133 -168 -133 -27 0 22 60 91 112 40 31 84 65 97 77
13 11 28 18 33 15 6 -4 -19 -35 -53 -71z m-225 -307 c-44 -31 -205 -107 -219
-104 -24 5 185 117 220 118 19 0 19 0 -1 -14z m-57 -102 c-3 -3 -12 -4 -19 -1
-8 3 -5 6 6 6 11 1 17 -2 13 -5z m-184 -21 c-7 -2 -19 -2 -25 0 -7 3 -2 5 12
5 14 0 19 -2 13 -5z m626 -849 c23 -20 40 -38 37 -41 -7 -8 -60 24 -85 51 -38
40 -3 33 48 -10z m-993 -532 c38 -32 57 -82 31 -82 -18 0 -107 88 -107 105 0
17 44 4 76 -23z"/>
<path d="M2068 2093 c-32 -37 -39 -62 -27 -85 7 -13 20 -29 31 -36 27 -20 22
-29 -19 -37 -48 -9 -53 -12 -46 -30 14 -38 106 0 142 59 25 39 26 67 6 105
-22 43 -61 54 -87 24z m52 -48 c15 -18 13 -20 -17 -29 -18 -6 -23 -3 -23 12 0
33 19 42 40 17z"/>
<path d="M610 1775 c-19 -23 -24 -91 -10 -140 17 -62 50 -95 94 -95 68 0 94
67 56 145 -42 86 -108 129 -140 90z m70 -65 c27 -14 42 -65 28 -95 -13 -29
-25 -31 -50 -8 -13 11 -18 30 -18 65 0 49 7 56 40 38z"/>
<path d="M2060 1591 c-27 -27 -39 -51 -25 -51 4 0 20 7 36 16 37 19 43 15 28
-19 -18 -39 -5 -60 31 -52 26 6 30 4 30 -14 0 -11 -4 -23 -10 -26 -15 -9 -12
-35 4 -35 22 0 67 60 64 84 -2 12 -16 27 -34 36 -26 13 -31 20 -30 50 1 32 -1
35 -32 38 -25 3 -39 -3 -62 -27z"/>
<path d="M1878 1375 c-55 -40 -118 -119 -118 -149 0 -16 21 0 92 72 97 98 110
138 26 77z"/>
<path d="M1901 1315 c-39 -42 -51 -65 -33 -65 11 0 67 60 81 88 19 36 -3 25
-48 -23z"/>
<path d="M1500 455 c-30 -8 -92 -14 -138 -15 -65 0 -84 -3 -89 -15 -9 -26 5
-30 90 -28 57 1 107 9 165 28 122 39 101 62 -28 30z"/>
<path d="M1485 381 c-112 -26 -135 -35 -135 -51 0 -21 46 -19 132 4 103 27
163 50 173 66 10 16 -52 10 -170 -19z"/>
<path d="M500 266 c0 -25 38 -87 58 -94 20 -6 14 24 -15 72 -31 51 -43 57 -43
22z"/>
</g>
</svg>
